<svg version="1.1" id="Layer_1" xmlns="http://www.w3.org/2000/svg" xmlns:xlink="http://www.w3.org/1999/xlink" x="0px" y="0px"
	 width="100%" viewBox="0 0 1920 1080" enable-background="new 0 0 1920 1080" xml:space="preserve">
<path fill="#FFFFFF" opacity="1.000000" stroke="none" 
	d="
M1406.000000,1081.000000 
	C937.333435,1081.000000 469.166840,1081.000000 1.000188,1081.000000 
	C1.000126,721.000122 1.000126,361.000305 1.000063,1.000333 
	C640.999756,1.000222 1280.999512,1.000222 1920.999512,1.000111 
	C1920.999634,360.999664 1920.999634,720.999329 1920.999756,1080.999512 
	C1749.500000,1081.000000 1578.000000,1081.000000 1406.000000,1081.000000 
M1386.000000,656.500000 
	C1386.000000,489.393097 1386.000000,322.286194 1386.000000,154.725311 
	C1379.390869,155.542038 1373.409424,156.265320 1367.432373,157.022812 
	C1349.141846,159.340881 1330.873901,161.856171 1312.556030,163.932388 
	C1300.656128,165.281158 1288.699341,166.258331 1276.741577,166.933441 
	C1260.406128,167.855698 1244.045898,168.339020 1227.695557,168.990463 
	C1225.917969,169.061295 1224.135132,169.000000 1222.266113,169.000000 
	C1222.266113,417.885223 1222.266113,666.283752 1222.266113,914.710632 
	C1276.931641,914.710632 1331.330688,914.710632 1386.000000,914.710632 
	C1386.000000,828.781006 1386.000000,743.140503 1386.000000,656.500000 
M1449.000000,893.499878 
	C1449.000000,900.597473 1449.000000,907.695007 1449.000000,914.664124 
	C1504.025024,914.664124 1558.424316,914.664124 1612.659180,914.664124 
	C1612.659180,661.253662 1612.659180,408.179169 1612.659180,154.846756 
	C1601.286865,156.271545 1590.283569,157.680069 1579.272339,159.022598 
	C1562.738159,161.038528 1546.223267,163.257416 1529.652954,164.920242 
	C1515.917114,166.298660 1502.123535,167.193481 1488.335938,167.938980 
	C1476.760254,168.564880 1465.155884,168.662369 1453.564575,169.005035 
	C1452.124390,169.047607 1450.686157,169.159149 1449.000000,169.252380 
	C1449.000000,410.552979 1449.000000,651.526489 1449.000000,893.499878 
M620.500000,470.000000 
	C580.415466,470.000000 540.330994,470.000000 499.822266,470.000000 
	C499.822266,541.318787 499.822266,612.038147 499.822266,683.000488 
	C439.450714,683.000488 379.505768,683.000488 319.383057,683.000488 
	C309.738037,723.616455 300.138977,764.039001 290.390961,805.088745 
	C360.857849,805.088745 430.256134,805.088745 500.089935,805.088745 
	C500.089935,841.893616 500.089935,878.287659 500.089935,914.729736 
	C556.915710,914.729736 613.303589,914.729736 670.128174,914.729736 
	C670.128174,878.067810 670.128174,841.673828 670.128174,804.866516 
	C682.315186,804.866516 694.071228,804.866516 705.591736,804.866516 
	C712.273438,764.104980 718.882935,723.784302 725.591248,682.860535 
	C706.396790,682.860535 688.327087,682.860535 669.839355,682.860535 
	C669.839355,611.698486 669.839355,540.979126 669.839355,470.000000 
	C653.442383,470.000000 637.471191,470.000000 620.500000,470.000000 
M1106.438354,387.952209 
	C1106.668457,397.072693 1103.745605,405.430206 1099.285156,413.086243 
	C1087.704712,432.963257 1072.026978,449.249939 1054.575195,464.142456 
	C1037.926025,478.350098 1019.921753,490.506927 1001.256531,501.728546 
	C997.803711,503.804352 996.934143,505.686951 996.936218,509.311401 
	C997.012024,642.632629 997.000000,775.953857 997.000000,909.275085 
	C997.000000,911.058167 997.000000,912.841248 997.000000,914.748901 
	C1052.194946,914.748901 1106.923828,914.748901 1162.000000,914.748901 
	C1162.000000,912.704163 1162.000000,910.906067 1162.000000,909.107971 
	C1162.000000,798.451355 1162.043945,687.794617 1161.955200,577.138123 
	C1161.941040,559.381226 1161.739990,541.604980 1160.871704,523.874573 
	C1160.175537,509.654572 1158.547119,495.466858 1156.953613,481.307434 
	C1154.901245,463.070007 1150.609009,445.321716 1143.961426,428.195251 
	C1136.508667,408.994476 1124.851196,392.760529 1109.024414,379.561768 
	C1107.020386,377.890533 1104.796021,376.483643 1102.948120,375.151947 
	C1104.000977,379.238190 1105.025269,383.213715 1106.438354,387.952209 
M765.945129,685.429016 
	C763.321045,690.807434 760.525146,696.109802 758.103943,701.578003 
	C749.633789,720.707397 744.653625,740.861084 743.239746,761.610474 
	C742.308594,775.276611 743.406494,789.110840 744.062256,802.847473 
	C744.811035,818.533020 748.994141,833.467407 754.940796,847.967163 
	C763.995300,870.044861 777.543030,888.450562 797.395142,902.133911 
	C816.008545,914.963501 836.788330,922.143921 858.944031,923.696045 
	C881.160156,925.252380 903.615967,925.143005 924.824341,916.006287 
	C939.687622,909.603088 952.143005,900.232239 962.198669,887.491821 
	C973.614990,873.027466 980.829712,856.575256 986.009583,839.093750 
	C987.624451,833.643860 989.035156,828.133484 990.539185,822.650757 
	C990.111389,822.512573 989.683655,822.374390 989.255859,822.236206 
	C988.835815,823.027222 988.324829,823.783752 988.009644,824.614563 
	C984.282043,834.442505 979.546509,843.637634 970.629150,849.804565 
	C959.914246,857.214600 948.312012,858.397827 936.224182,853.637756 
	C922.609985,848.276367 916.121643,836.444275 911.170898,823.987427 
	C902.721313,802.727112 902.027588,780.041077 901.173401,757.571594 
	C900.807068,747.935242 902.046387,738.196594 903.068359,728.558777 
	C904.443359,715.593201 906.218994,702.667175 907.992798,689.747498 
	C910.904785,668.539001 916.410645,647.936401 922.802612,627.548584 
	C930.554749,602.822510 940.408081,578.990845 953.199402,556.426819 
	C961.575745,541.650757 970.954956,527.585754 982.978210,515.440125 
	C983.978577,514.429504 984.533325,512.977722 985.295105,511.730865 
	C966.391968,520.694336 947.996704,529.841248 930.455505,540.406250 
	C907.738770,554.088318 885.215942,568.208496 863.536499,583.457764 
	C847.671753,594.617004 833.113770,607.681641 818.344971,620.330872 
	C811.242981,626.413574 804.824585,633.335266 798.427612,640.186035 
	C793.980652,644.948425 789.805786,650.029297 786.026001,655.335876 
	C779.162354,664.972107 772.683533,674.882446 765.945129,685.429016 
M859.454956,341.999451 
	C856.119507,342.662994 852.791565,343.367035 849.447510,343.983612 
	C824.923889,348.504852 800.924683,354.702728 778.145203,365.186035 
	C774.842163,366.706116 773.926208,368.208496 773.930908,371.606262 
	C774.023560,439.078979 773.998779,506.551880 774.009521,574.024719 
	C774.009705,575.212158 774.152649,576.399597 774.259705,578.065491 
	C782.096436,566.343323 789.034424,554.818176 797.103760,544.148682 
	C811.257324,525.434692 825.614014,506.826843 840.835144,488.984558 
	C850.782288,477.324432 862.154114,466.826996 873.350342,456.300781 
	C883.390503,446.861420 893.952698,437.964172 904.481079,429.060150 
	C921.871765,414.352539 940.700012,401.663879 960.696960,390.816742 
	C984.100159,378.121979 1008.372437,367.832611 1035.054688,363.801147 
	C1050.183472,361.515350 1065.004395,361.190674 1079.861572,364.938446 
	C1084.051270,365.995270 1088.272827,366.926605 1093.884644,368.245728 
	C1091.881836,366.505035 1091.108765,365.640106 1090.166138,365.042786 
	C1076.437378,356.343231 1061.733276,349.939453 1046.072632,345.477997 
	C1021.319275,338.426239 996.108765,334.700287 970.424316,334.030823 
	C962.765930,333.831207 955.097900,333.997009 947.434326,334.000793 
	C939.437683,334.004730 931.407898,333.553986 923.451965,334.127136 
	C910.401611,335.067383 897.377563,336.494202 884.384766,338.066284 
	C876.330322,339.040833 868.354248,340.662720 859.454956,341.999451 
M407.946991,321.251190 
	C403.580048,338.969238 399.204742,356.685272 394.848389,374.405914 
	C390.183380,393.382202 385.541260,412.364136 380.880127,431.341370 
	C371.866089,468.041138 362.921661,504.758179 353.805939,541.432678 
	C345.316864,575.585999 336.635712,609.691467 328.103119,643.834106 
	C327.942322,644.477478 328.576324,645.319458 329.165771,646.997620 
	C333.257660,633.825256 336.918243,621.662048 340.812469,609.574097 
	C354.308716,567.681274 368.366272,525.985352 385.824768,485.533112 
	C395.476837,463.168732 404.887482,440.683044 415.243286,418.644989 
	C423.088440,401.949829 431.886932,385.668549 440.930267,369.579132 
	C451.935120,349.999847 463.113556,330.478607 475.172729,311.540894 
	C491.935120,285.217285 509.963745,259.728058 530.444885,236.098801 
	C542.932739,221.691483 555.663452,207.494629 568.299561,193.216080 
	C569.400879,191.971664 570.597656,190.810181 571.772827,189.632874 
	C578.048340,183.345871 584.343750,177.078796 590.607239,170.779861 
	C595.662842,165.695633 600.682800,160.576019 606.035828,155.150589 
	C553.025024,155.150589 500.739563,155.150589 448.450439,155.150589 
	C441.613525,182.694366 434.742615,210.080322 428.028961,237.504776 
	C421.269653,265.115601 414.666626,292.764648 407.946991,321.251190 
z"/>
<path fill="#C40C0C" opacity="1.000000" stroke="none" 
	d="
M1386.000000,657.000000 
	C1386.000000,743.140503 1386.000000,828.781006 1386.000000,914.710632 
	C1331.330688,914.710632 1276.931641,914.710632 1222.266113,914.710632 
	C1222.266113,666.283752 1222.266113,417.885223 1222.266113,169.000000 
	C1224.135132,169.000000 1225.917969,169.061295 1227.695557,168.990463 
	C1244.045898,168.339020 1260.406128,167.855698 1276.741577,166.933441 
	C1288.699341,166.258331 1300.656128,165.281158 1312.556030,163.932388 
	C1330.873901,161.856171 1349.141846,159.340881 1367.432373,157.022812 
	C1373.409424,156.265320 1379.390869,155.542038 1386.000000,154.725311 
	C1386.000000,322.286194 1386.000000,489.393097 1386.000000,657.000000 
z"/>
<path fill="#C40C0C" opacity="1.000000" stroke="none" 
	d="
M1449.000000,892.999939 
	C1449.000000,651.526489 1449.000000,410.552979 1449.000000,169.252380 
	C1450.686157,169.159149 1452.124390,169.047607 1453.564575,169.005035 
	C1465.155884,168.662369 1476.760254,168.564880 1488.335938,167.938980 
	C1502.123535,167.193481 1515.917114,166.298660 1529.652954,164.920242 
	C1546.223267,163.257416 1562.738159,161.038528 1579.272339,159.022598 
	C1590.283569,157.680069 1601.286865,156.271545 1612.659180,154.846756 
	C1612.659180,408.179169 1612.659180,661.253662 1612.659180,914.664124 
	C1558.424316,914.664124 1504.025024,914.664124 1449.000000,914.664124 
	C1449.000000,907.695007 1449.000000,900.597473 1449.000000,892.999939 
z"/>
<path fill="#C40C0C" opacity="1.000000" stroke="none" 
	d="
M621.000000,470.000000 
	C637.471191,470.000000 653.442383,470.000000 669.839355,470.000000 
	C669.839355,540.979126 669.839355,611.698486 669.839355,682.860535 
	C688.327087,682.860535 706.396790,682.860535 725.591248,682.860535 
	C718.882935,723.784302 712.273438,764.104980 705.591736,804.866516 
	C694.071228,804.866516 682.315186,804.866516 670.128174,804.866516 
	C670.128174,841.673828 670.128174,878.067810 670.128174,914.729736 
	C613.303589,914.729736 556.915710,914.729736 500.089935,914.729736 
	C500.089935,878.287659 500.089935,841.893616 500.089935,805.088745 
	C430.256134,805.088745 360.857849,805.088745 290.390961,805.088745 
	C300.138977,764.039001 309.738037,723.616455 319.383057,683.000488 
	C379.505768,683.000488 439.450714,683.000488 499.822266,683.000488 
	C499.822266,612.038147 499.822266,541.318787 499.822266,470.000000 
	C540.330994,470.000000 580.415466,470.000000 621.000000,470.000000 
z"/>
<path fill="#C40C0C" opacity="1.000000" stroke="none" 
	d="
M1106.243896,387.570740 
	C1105.025269,383.213715 1104.000977,379.238190 1102.948120,375.151947 
	C1104.796021,376.483643 1107.020386,377.890533 1109.024414,379.561768 
	C1124.851196,392.760529 1136.508667,408.994476 1143.961426,428.195251 
	C1150.609009,445.321716 1154.901245,463.070007 1156.953613,481.307434 
	C1158.547119,495.466858 1160.175537,509.654572 1160.871704,523.874573 
	C1161.739990,541.604980 1161.941040,559.381226 1161.955200,577.138123 
	C1162.043945,687.794617 1162.000000,798.451355 1162.000000,909.107971 
	C1162.000000,910.906067 1162.000000,912.704163 1162.000000,914.748901 
	C1106.923828,914.748901 1052.194946,914.748901 997.000000,914.748901 
	C997.000000,912.841248 997.000000,911.058167 997.000000,909.275085 
	C997.000000,775.953857 997.012024,642.632629 996.936218,509.311401 
	C996.934143,505.686951 997.803711,503.804352 1001.256531,501.728546 
	C1019.921753,490.506927 1037.926025,478.350098 1054.575195,464.142456 
	C1072.026978,449.249939 1087.704712,432.963257 1099.285156,413.086243 
	C1103.745605,405.430206 1106.668457,397.072693 1106.243896,387.570740 
z"/>
<path fill="#C40C0C" opacity="1.000000" stroke="none" 
	d="
M765.994629,685.053711 
	C772.683533,674.882446 779.162354,664.972107 786.026001,655.335876 
	C789.805786,650.029297 793.980652,644.948425 798.427612,640.186035 
	C804.824585,633.335266 811.242981,626.413574 818.344971,620.330872 
	C833.113770,607.681641 847.671753,594.617004 863.536499,583.457764 
	C885.215942,568.208496 907.738770,554.088318 930.455505,540.406250 
	C947.996704,529.841248 966.391968,520.694336 985.295105,511.730865 
	C984.533325,512.977722 983.978577,514.429504 982.978210,515.440125 
	C970.954956,527.585754 961.575745,541.650757 953.199402,556.426819 
	C940.408081,578.990845 930.554749,602.822510 922.802612,627.548584 
	C916.410645,647.936401 910.904785,668.539001 907.992798,689.747498 
	C906.218994,702.667175 904.443359,715.593201 903.068359,728.558777 
	C902.046387,738.196594 900.807068,747.935242 901.173401,757.571594 
	C902.027588,780.041077 902.721313,802.727112 911.170898,823.987427 
	C916.121643,836.444275 922.609985,848.276367 936.224182,853.637756 
	C948.312012,858.397827 959.914246,857.214600 970.629150,849.804565 
	C979.546509,843.637634 984.282043,834.442505 988.009644,824.614563 
	C988.324829,823.783752 988.835815,823.027222 989.255859,822.236206 
	C989.683655,822.374390 990.111389,822.512573 990.539185,822.650757 
	C989.035156,828.133484 987.624451,833.643860 986.009583,839.093750 
	C980.829712,856.575256 973.614990,873.027466 962.198669,887.491821 
	C952.143005,900.232239 939.687622,909.603088 924.824341,916.006287 
	C903.615967,925.143005 881.160156,925.252380 858.944031,923.696045 
	C836.788330,922.143921 816.008545,914.963501 797.395142,902.133911 
	C777.543030,888.450562 763.995300,870.044861 754.940796,847.967163 
	C748.994141,833.467407 744.811035,818.533020 744.062256,802.847473 
	C743.406494,789.110840 742.308594,775.276611 743.239746,761.610474 
	C744.653625,740.861084 749.633789,720.707397 758.103943,701.578003 
	C760.525146,696.109802 763.321045,690.807434 765.994629,685.053711 
z"/>
<path fill="#C40C0C" opacity="1.000000" stroke="none" 
	d="
M859.898926,341.996735 
	C868.354248,340.662720 876.330322,339.040833 884.384766,338.066284 
	C897.377563,336.494202 910.401611,335.067383 923.451965,334.127136 
	C931.407898,333.553986 939.437683,334.004730 947.434326,334.000793 
	C955.097900,333.997009 962.765930,333.831207 970.424316,334.030823 
	C996.108765,334.700287 1021.319275,338.426239 1046.072632,345.477997 
	C1061.733276,349.939453 1076.437378,356.343231 1090.166138,365.042786 
	C1091.108765,365.640106 1091.881836,366.505035 1093.884644,368.245728 
	C1088.272827,366.926605 1084.051270,365.995270 1079.861572,364.938446 
	C1065.004395,361.190674 1050.183472,361.515350 1035.054688,363.801147 
	C1008.372437,367.832611 984.100159,378.121979 960.696960,390.816742 
	C940.700012,401.663879 921.871765,414.352539 904.481079,429.060150 
	C893.952698,437.964172 883.390503,446.861420 873.350342,456.300781 
	C862.154114,466.826996 850.782288,477.324432 840.835144,488.984558 
	C825.614014,506.826843 811.257324,525.434692 797.103760,544.148682 
	C789.034424,554.818176 782.096436,566.343323 774.259705,578.065491 
	C774.152649,576.399597 774.009705,575.212158 774.009521,574.024719 
	C773.998779,506.551880 774.023560,439.078979 773.930908,371.606262 
	C773.926208,368.208496 774.842163,366.706116 778.145203,365.186035 
	C800.924683,354.702728 824.923889,348.504852 849.447510,343.983612 
	C852.791565,343.367035 856.119507,342.662994 859.898926,341.996735 
z"/>
<path fill="#C40C0C" opacity="1.000000" stroke="none" 
	d="
M407.971069,320.824066 
	C414.666626,292.764648 421.269653,265.115601 428.028961,237.504776 
	C434.742615,210.080322 441.613525,182.694366 448.450439,155.150589 
	C500.739563,155.150589 553.025024,155.150589 606.035828,155.150589 
	C600.682800,160.576019 595.662842,165.695633 590.607239,170.779861 
	C584.343750,177.078796 578.048340,183.345871 571.772827,189.632874 
	C570.597656,190.810181 569.400879,191.971664 568.299561,193.216080 
	C555.663452,207.494629 542.932739,221.691483 530.444885,236.098801 
	C509.963745,259.728058 491.935120,285.217285 475.172729,311.540894 
	C463.113556,330.478607 451.935120,349.999847 440.930267,369.579132 
	C431.886932,385.668549 423.088440,401.949829 415.243286,418.644989 
	C404.887482,440.683044 395.476837,463.168732 385.824768,485.533112 
	C368.366272,525.985352 354.308716,567.681274 340.812469,609.574097 
	C336.918243,621.662048 333.257660,633.825256 329.165771,646.997620 
	C328.576324,645.319458 327.942322,644.477478 328.103119,643.834106 
	C336.635712,609.691467 345.316864,575.585999 353.805939,541.432678 
	C362.921661,504.758179 371.866089,468.041138 380.880127,431.341370 
	C385.541260,412.364136 390.183380,393.382202 394.848389,374.405914 
	C399.204742,356.685272 403.580048,338.969238 407.971069,320.824066 
z"/>
</svg>